HIERARCHY
ROOT Hips
{
	OFFSET 0.00000 0.00000 0.00000
	CHANNELS 6 Xposition Yposition Zposition Yrotation Zrotation Xrotation 
	JOINT Lumbar
	{
		OFFSET 0 0 0
		CHANNELS 3 Zrotation Xrotation Yrotation
		JOINT Neck
		{
			OFFSET 0.00 0.2701 0.00
			CHANNELS 3 Zrotation Xrotation Yrotation
			End Site
			{
				OFFSET 0.00 0.1379 0.00
			}
		}
		JOINT RightShoulder
		{
			OFFSET 0.0119 0.2289 0.1181
			CHANNELS 3 Zrotation Xrotation Yrotation
			JOINT RightElbow
			{
				OFFSET 0.00 -0.1475 0.00
				CHANNELS 2 Zrotation Yrotation
				JOINT RightWrist
				{
					OFFSET 0.00 -0.1605 0.00
					CHANNELS 2 Zrotation Xrotation
					End Site
					{
						OFFSET 0.0040 -0.1068 0.0006
					}
				}
			}
		}
		JOINT LeftShoulder
		{
			OFFSET 0.0119 0.2289 -0.1181
			CHANNELS 3 Zrotation Xrotation Yrotation
			JOINT LeftElbow
			{
				OFFSET 0.00 -0.1475 0.00
				CHANNELS 2 Zrotation Yrotation
				JOINT LeftWrist
				{
					OFFSET 0.00 -0.1605 0.00
					CHANNELS 2 Zrotation Xrotation
					End Site
					{
						OFFSET 0.0040 -0.1068 -0.0006
					}
				}
			}
		}
	}
	JOINT RightHip
	{
		OFFSET 0.0316 -0.0424 0.0458
		CHANNELS 3 Zrotation Xrotation Yrotation
		JOINT RightKnee
		{
			OFFSET 0.00 -0.2438 0.00
			CHANNELS 1 Zrotation
			JOINT RightAnkle
			{
				OFFSET 0.00 -0.2449 0.00
				CHANNELS 3 Zrotation Xrotation Yrotation
				End Site
				{
					OFFSET 0.1237 -0.0542 0.0051
				}
			}
		}
	}
	JOINT LeftHip
	{
		OFFSET 0.0316 -0.0424 -0.0458
		CHANNELS 3 Zrotation Xrotation Yrotation
		JOINT LeftKnee
		{
			OFFSET 0.00 -0.2438 0.00
			CHANNELS 1 Zrotation
			JOINT LeftAnkle
			{
				OFFSET 0.00 -0.2449 0.00
				CHANNELS 3 Zrotation Xrotation Yrotation
				End Site
				{
					OFFSET 0.1237 -0.0542 -0.0051
				}
			}
		}
	}
}
MOTION
Frames: 22
Frame Time: 0.02
7e-05 -0 -9e-05 22.34384 -29.36644 -7.33091 48.63436 2.85622 -1.25315 -11.85946 -2.46233 -0.13639 51.75254 -102.43089 64.17004 8.4301 89.75874 12.05592 -1.81207 20.92317 105.05777 -64.17201 9.73941 -84.64784 6.95886 2.96979 44.86766 -5.76983 -3.73842 -21.87444 -7.16188 -3.59674 -2.5363 48.97587 10.31465 -1.23382 -27.10385 -7.21808 3.42348 2.48331
0.0001 -0 -0.00011 22.33924 -29.36886 -7.3287 48.62383 2.85439 -1.26062 -11.86614 -2.46565 -0.13662 51.96789 -102.41982 64.17004 8.3976 89.77281 12.09359 -1.79056 21.12494 105.01459 -64.1718 9.7265 -84.64057 7.04895 2.94334 44.86946 -5.75205 -3.63409 -21.87699 -7.16369 -3.60266 -2.54165 48.97209 10.32958 -1.16373 -27.10367 -7.217 3.42495 2.48071
0.00012 0 -0.00013 22.33464 -29.37127 -7.32651 48.61334 2.85256 -1.26808 -11.87285 -2.46895 -0.13684 52.18263 -102.40878 64.17003 8.36519 89.78684 12.13113 -1.76912 21.32614 104.97154 -64.17159 9.71367 -84.63331 7.13872 2.91695 44.87124 -5.73432 -3.53008 -21.87953 -7.16549 -3.60857 -2.54698 48.96832 10.34445 -1.09391 -27.10349 -7.21593 3.42642 2.47811
0.00015 0 -0.00015 22.33005 -29.37369 -7.32431 48.60284 2.85074 -1.27553 -11.87952 -2.47226 -0.13706 52.39733 -102.39774 64.17003 8.33278 89.80087 12.16868 -1.74767 21.52729 104.92849 -64.17138 9.70081 -84.62606 7.22853 2.89057 44.87304 -5.71659 -3.42607 -21.88207 -7.1673 -3.61448 -2.55232 48.96455 10.35933 -1.02404 -27.10332 -7.21485 3.42789 2.47552
0.00018 0 -0.00017 22.32546 -29.3761 -7.32211 48.5923 2.84891 -1.28299 -11.88615 -2.47559 -0.13729 52.61262 -102.38669 64.17002 8.30029 89.81493 12.20635 -1.72617 21.72899 104.88532 -64.17117 9.68786 -84.61881 7.31867 2.86412 44.87484 -5.69881 -3.32176 -21.88462 -7.1691 -3.62039 -2.55766 48.96078 10.37427 -0.95389 -27.10315 -7.21378 3.42936 2.47291
0.00021 0 -0.00019 22.32083 -29.37851 -7.31994 48.58193 2.84708 -1.29042 -11.893 -2.47882 -0.13751 52.8262 -102.37564 64.17002 8.26807 89.8289 12.24362 -1.70483 21.92912 104.84253 -64.17096 9.67527 -84.61155 7.40769 2.83785 44.87659 -5.68118 -3.21838 -21.88711 -7.1709 -3.62628 -2.56297 48.95699 10.389 -0.88476 -27.10296 -7.21271 3.43083 2.47035
0.00023 0 -0.00021 22.31629 -29.38093 -7.3177 48.57122 2.84527 -1.29791 -11.89941 -2.48225 -0.13774 53.04299 -102.36461 64.17002 8.23532 89.84303 12.28166 -1.68319 22.13219 104.79903 -64.17075 9.66199 -84.6043 7.49883 2.81126 44.87846 -5.66327 -3.11321 -21.88974 -7.17272 -3.63223 -2.56836 48.95326 10.40413 -0.81365 -27.1028 -7.21163 3.43229 2.4677
0.00026 0 -0.00023 22.31167 -29.38333 -7.31552 48.56082 2.84343 -1.30534 -11.90622 -2.4855 -0.13796 53.2568 -102.35356 64.17001 8.20307 89.85702 12.319 -1.66183 22.33255 104.75615 -64.17055 9.64932 -84.59706 7.58806 2.78496 44.88021 -5.64563 -3.00976 -21.89224 -7.17451 -3.63811 -2.57366 48.94946 10.41889 -0.74437 -27.10262 -7.21056 3.43376 2.46514
0.00029 1e-05 -0.00025 22.30695 -29.38575 -7.31342 48.5508 2.84157 -1.31274 -11.91356 -2.48851 -0.13819 53.46714 -102.34249 64.17001 8.17137 89.87081 12.35546 -1.6408 22.52966 104.71412 -64.17034 9.63748 -84.58975 7.67483 2.75903 44.88182 -5.62824 -2.90811 -21.89457 -7.17628 -3.64395 -2.57889 48.94562 10.43321 -0.67727 -27.10241 -7.20949 3.43524 2.46266
0.00032 1e-05 -0.00027 22.30279 -29.38818 -7.31089 48.53862 2.83986 -1.32041 -11.91797 -2.49283 -0.13842 53.698 -102.33153 64.17 8.13633 89.8857 12.39689 -1.61783 22.7457 104.66748 -64.17012 9.6211 -84.58262 7.77539 2.73099 44.88426 -5.6092 -2.79519 -21.89781 -7.17823 -3.65015 -2.58464 48.94213 10.45011 -0.59745 -27.10235 -7.20838 3.43668 2.45964
0.00035 1e-05 -0.00029 22.29744 -29.39052 -7.30926 48.53095 2.83784 -1.32747 -11.92849 -2.49442 -0.13863 53.88516 -102.32035 64.17 8.10844 89.89826 12.42787 -1.59898 22.9216 104.63042 -64.16994 9.61417 -84.57524 7.84709 2.70741 44.88492 -5.59376 -2.70662 -21.89918 -7.17977 -3.65552 -2.58923 48.93784 10.46154 -0.54462 -27.10199 -7.20737 3.4382 2.45778
0.0004 2e-05 -0.00031 22.28887 -29.39308 -7.31019 48.53623 2.8349 -1.33314 -11.95654 -2.48835 -0.13879 53.95495 -102.3085 64.17 8.0997 89.90449 12.42982 -1.59127 22.98809 104.62118 -64.1699 9.63465 -84.56597 7.83679 2.69605 44.88112 -5.58746 -2.68079 -21.89503 -7.18049 -3.65919 -2.59097 48.93199 10.45802 -0.56523 -27.10076 -7.20657 3.43987 2.45914
0.00045 3e-05 -0.00034 22.2791 -29.39547 -7.31202 48.54592 2.83166 -1.33814 -11.99057 -2.47957 -0.13893 53.98058 -102.29642 64.17 8.09823 89.90837 12.42135 -1.58771 23.01416 104.62128 -64.16991 9.66439 -84.55667 7.798 2.68918 44.8755 -5.58489 -2.68005 -21.88906 -7.18077 -3.66195 -2.59149 48.92526 10.44899 -0.613 -27.09926 -7.20586 3.44163 2.46167
0.00051 4e-05 -0.00037 22.2698 -29.39758 -7.31336 48.5532 2.82862 -1.34324 -12.02138 -2.47215 -0.13907 54.02455 -102.28448 64.17 8.0938 89.91326 12.41788 -1.58241 23.05819 104.61615 -64.1699 9.68892 -84.54816 7.77417 2.68027 44.87044 -5.58114 -2.67066 -21.88417 -7.18108 -3.66474 -2.59234 48.91851 10.44241 -0.64881 -27.09793 -7.20513 3.44341 2.46367
0.00056 6e-05 -0.0004 22.26073 -29.40111 -7.31501 48.56218 2.82533 -1.34917 -12.05441 -2.4642 -0.13921 54.07501 -102.27241 64.17 8.08802 89.91838 12.41325 -1.5766 23.10374 104.61527 -64.16989 9.7176 -84.53634 7.742 2.67133 44.86641 -5.57534 -2.65022 -21.87822 -7.18207 -3.66908 -2.59408 48.91343 10.43603 -0.68326 -27.09636 -7.20432 3.44494 2.46568
0.00061 7e-05 -0.00042 22.25101 -29.40173 -7.31626 48.5687 2.82247 -1.35326 -12.08413 -2.45671 -0.13937 54.10236 -102.26053 64.17 8.08665 89.9225 12.40857 -1.57273 23.13672 104.60768 -64.16989 9.73996 -84.53148 7.72019 2.66356 44.85989 -5.57456 -2.65808 -21.87403 -7.18156 -3.67005 -2.59373 48.9048 10.42797 -0.72675 -27.09524 -7.20371 3.447 2.46794
0.00067 7e-05 -0.00044 22.2389 -29.39349 -7.31612 48.56687 2.8211 -1.35191 -12.10405 -2.45111 -0.13957 54.06948 -102.2495 64.17 8.09658 89.92425 12.40631 -1.57399 23.14365 104.5797 -64.16989 9.74135 -84.54531 7.73626 2.65749 44.84622 -5.58769 -2.7434 -21.87525 -7.17681 -3.6614 -2.58746 48.88543 10.41622 -0.79065 -27.09542 -7.20364 3.45053 2.47065
0.00073 8e-05 -0.00046 22.22633 -29.38247 -7.31558 48.56248 2.82012 -1.34879 -12.12027 -2.44609 -0.13978 54.01625 -102.23861 64.17 8.1105 89.92514 12.40432 -1.57691 23.13975 104.54457 -64.1699 9.73627 -84.56625 7.76337 2.65246 44.83023 -5.60553 -2.85523 -21.87828 -7.1706 -3.6495 -2.57919 48.86273 10.40303 -0.86239 -27.09605 -7.20378 3.45458 2.47358
0.0008 8e-05 -0.00047 22.21461 -29.37327 -7.31529 48.55959 2.81879 -1.34682 -12.13767 -2.44084 -0.13999 53.97705 -102.22752 64.17 8.122 89.92656 12.40227 -1.57855 23.14138 104.5124 -64.16991 9.73495 -84.58432 7.78385 2.6473 44.81577 -5.62059 -2.95139 -21.8804 -7.1652 -3.63945 -2.5721 48.84234 10.39079 -0.92906 -27.09646 -7.20383 3.45834 2.47639
0.00086 9e-05 -0.00049 22.20027 -29.36175 -7.31477 48.55549 2.81818 -1.34341 -12.15743 -2.43533 -0.1402 53.91599 -102.21709 64.17001 8.13638 89.9273 12.39975 -1.58255 23.13828 104.48169 -64.1699 9.73051 -84.60095 7.80992 2.64108 44.79929 -5.63853 -3.06395 -21.88282 -7.15915 -3.62777 -2.56382 48.8186 10.37719 -1.00275 -27.09691 -7.20386 3.4623 2.47931
0.00092 9e-05 -0.0005 22.19115 -29.35435 -7.3146 48.55317 2.81618 -1.34253 -12.17129 -2.43054 -0.1404 53.89638 -102.20521 64.17001 8.14555 89.92931 12.39822 -1.58199 23.14394 104.44621 -64.16994 9.7309 -84.62217 7.8276 2.63696 44.78643 -5.65147 -3.14803 -21.88507 -7.15413 -3.61874 -2.55755 48.80098 10.36606 -1.06371 -27.0974 -7.20399 3.46602 2.48205
0.00097 9e-05 -0.00051 22.19769 -29.35957 -7.31554 48.55707 2.81009 -1.34976 -12.16984 -2.42762 -0.14054 53.99496 -102.19028 64.17001 8.13997 89.93466 12.4008 -1.56835 23.16823 104.39852 -64.17013 9.74633 -84.65524 7.81726 2.64104 44.78448 -5.65014 -3.14954 -21.88639 -7.15232 -3.61794 -2.55737 48.80196 10.36278 -1.0838 -27.0979 -7.20425 3.46846 2.484
